<svg width="31" height="29" viewBox="0 0 31 29" fill="none" xmlns="http://www.w3.org/2000/svg">
<g id="Group">
<path id="Vector" d="M24.2798 12.1826C16.5287 13.4696 9.15785 16.102 2.37197 19.963L0.967991 22.3907C0.733996 22.8002 0.587748 23.2389 0.5 23.6777C8.57286 19.5242 17.4355 17.0088 26.6783 16.3068L24.2798 12.1826Z" fill="#916EB0"/>
<path id="Vector_2" d="M23.3437 10.5445L18.9271 2.91041C17.4353 0.307207 13.6914 0.307207 12.1997 2.91041L4.03906 17.0379C10.0937 13.9375 16.5871 11.7438 23.3437 10.5445Z" fill="#32A0B7"/>
<path id="Vector_3" d="M27.6438 18.0034C18.1084 18.5884 8.95334 21.1916 0.646484 25.579C1.14373 27.0708 2.5477 28.2115 4.33192 28.2115H26.7955C29.779 28.2115 31.6509 24.9648 30.1592 22.3908L27.6145 18.0034H27.6438Z" fill="#0A6D98"/>
</g>
</svg>
